<svg width="15" height="30" viewBox="0 0 15 30" fill="none" xmlns="http://www.w3.org/2000/svg">
<g clip-path="url(#clip0_87_296)">
<path d="M4.42607 29.9055V16.3507H0V10.9979H4.42607C4.53473 8.16361 3.92623 5.11132 5.61408 2.66047C7.20051 0.367497 9.79385 -0.0309546 12.3655 0.119404L14.9153 0.299835V5.07373H11.9163C11.699 5.07373 11.1412 5.1865 10.9239 5.26168C10.243 5.50977 9.70692 6.26157 9.70692 7.02088V11.0054H14.7487L14.075 16.3582H9.69968V29.913H4.43331L4.42607 29.9055Z" fill="#000"/>
<g clip-path="url(#clip1_87_296)">
<path d="M4.42607 29.9055V16.3507H0V10.9979H4.42607C4.53473 8.16361 3.92623 5.11132 5.61408 2.66047C7.20051 0.367497 9.79385 -0.0309546 12.3655 0.119404L14.9153 0.299835V5.07373H11.9163C11.699 5.07373 11.1412 5.1865 10.9239 5.26168C10.243 5.50977 9.70692 6.26157 9.70692 7.02088V11.0054H14.7487L14.075 16.3582H9.69968V29.913H4.43331L4.42607 29.9055Z" fill="#000"/>
</g>
</g>
<defs>
<clipPath id="clip0_87_296">
<rect width="14.9081" height="29.8162" fill="white" transform="translate(0 0.0893555)"/>
</clipPath>
<clipPath id="clip1_87_296">
<rect width="14.9081" height="29.8162" fill="white" transform="translate(0 0.0893555)"/>
</clipPath>
</defs>
</svg>
