<?xml version="1.0" encoding="iso-8859-1"?>
<!-- Uploaded to: SVG Repo, www.svgrepo.com, Generator: SVG Repo Mixer Tools -->
<svg height="800px" width="800px" version="1.1" id="Layer_1" xmlns="http://www.w3.org/2000/svg" xmlns:xlink="http://www.w3.org/1999/xlink" 
	 viewBox="0 0 511.573 511.573" xml:space="preserve">
<g transform="translate(1 1)">
	<polygon style="fill:#FFE100;" points="254.787,7.107 84.12,143.64 425.453,143.64 	"/>
	<polygon style="fill:#FFFFFF;" points="84.12,143.64 254.787,7.107 41.453,143.64 	"/>
	<polygon style="fill:#FFA800;" points="254.787,7.107 425.453,143.64 468.12,143.64 	"/>
	<g>
		<polygon style="fill:#FFE100;" points="41.453,502.04 92.653,502.04 92.653,450.84 41.453,450.84 		"/>
		<polygon style="fill:#FFE100;" points="416.92,502.04 468.12,502.04 468.12,450.84 416.92,450.84 		"/>
		<polygon style="fill:#FFE100;" points="41.453,450.84 468.12,450.84 468.12,143.64 41.453,143.64 		"/>
	</g>
	<polygon style="fill:#FFA800;" points="442.52,126.573 442.52,502.04 468.12,502.04 468.12,146.2 	"/>
	<polygon style="fill:#FFFFFF;" points="41.453,143.64 41.453,502.04 67.053,502.04 67.053,126.573 	"/>
	<path style="fill:#63D3FD;" d="M314.52,450.84H195.053V341.613c0-15.36,12.8-27.307,27.307-27.307h64
		c15.36,0,27.307,12.8,27.307,27.307V450.84H314.52z"/>
	<path style="fill:#3DB9F9;" d="M287.213,314.307h-25.6c15.36,0,27.307,12.8,27.307,27.307V450.84h25.6V341.613
		C314.52,327.107,302.573,314.307,287.213,314.307"/>
	<path d="M468.12,459.373H41.453c-5.12,0-8.533-3.413-8.533-8.533v-307.2c0-2.56,1.707-5.973,4.267-6.827L250.52,0.28
		c2.56-1.707,5.973-1.707,9.387,0L473.24,136.813c2.56,1.707,4.267,4.267,4.267,6.827v307.2
		C476.653,455.96,473.24,459.373,468.12,459.373z M49.987,442.307h409.6v-294.4l-204.8-130.56l-204.8,130.56V442.307z"/>
	<path d="M92.653,510.573h-51.2c-5.12,0-8.533-3.413-8.533-8.533v-51.2c0-5.12,3.413-8.533,8.533-8.533h51.2
		c5.12,0,8.533,3.413,8.533,8.533v51.2C101.187,507.16,97.773,510.573,92.653,510.573z M49.987,493.507H84.12v-34.133H49.987
		V493.507z"/>
	<path d="M468.12,510.573h-51.2c-5.12,0-8.533-3.413-8.533-8.533v-51.2c0-5.12,3.413-8.533,8.533-8.533h51.2
		c5.12,0,8.533,3.413,8.533,8.533v51.2C476.653,507.16,473.24,510.573,468.12,510.573z M425.453,493.507h34.133v-34.133h-34.133
		V493.507z"/>
	<path d="M7.32,177.773c-2.56,0-5.12-0.853-6.827-3.413c-2.56-3.413-1.707-9.387,1.707-11.947l34.133-25.6
		c3.413-2.56,9.387-1.707,11.947,1.707c2.56,3.413,1.707,9.387-1.707,11.947l-34.133,25.6C10.733,176.92,9.027,177.773,7.32,177.773
		z"/>
	<path d="M502.253,177.773c-1.707,0-3.413-0.853-5.12-1.707L463,150.467c-3.413-2.56-4.267-8.533-1.707-11.947
		c2.56-3.413,8.533-4.267,11.947-1.707l34.133,25.6c3.413,2.56,4.267,8.533,1.707,11.947
		C507.373,176.92,504.813,177.773,502.253,177.773z"/>
	<path d="M468.12,254.573H41.453c-5.12,0-8.533-3.413-8.533-8.533v-102.4c0-5.12,3.413-8.533,8.533-8.533H468.12
		c5.12,0,8.533,3.413,8.533,8.533v102.4C476.653,251.16,473.24,254.573,468.12,254.573z M49.987,237.507h409.6v-85.333h-409.6
		V237.507z"/>
	<path d="M314.52,459.373H195.053c-5.12,0-8.533-3.413-8.533-8.533V341.613c0-19.627,16.213-35.84,35.84-35.84h64
		c19.627,0,35.84,16.213,35.84,35.84V450.84C323.053,455.96,319.64,459.373,314.52,459.373z M203.587,442.307h102.4V341.613
		c0-10.24-8.533-18.773-18.773-18.773h-64c-11.093,0-19.627,8.533-19.627,18.773V442.307z"/>
	<path d="M195.053,459.373h-153.6c-5.12,0-8.533-3.413-8.533-8.533v-102.4c0-5.12,3.413-8.533,8.533-8.533h153.6
		c5.12,0,8.533,3.413,8.533,8.533v102.4C203.587,455.96,200.173,459.373,195.053,459.373z M49.987,442.307H186.52v-85.333H49.987
		V442.307z"/>
	<path d="M468.12,459.373h-153.6c-5.12,0-8.533-3.413-8.533-8.533v-102.4c0-5.12,3.413-8.533,8.533-8.533h153.6
		c5.12,0,8.533,3.413,8.533,8.533v102.4C476.653,455.96,473.24,459.373,468.12,459.373z M323.053,442.307h136.533v-85.333H323.053
		V442.307z"/>
	<path d="M468.12,356.973h-153.6c-5.12,0-8.533-3.413-8.533-8.533v-6.827c0-10.24-8.533-18.773-18.773-18.773h-64
		c-11.093,0-19.627,8.533-19.627,18.773v6.827c0,5.12-3.413,8.533-8.533,8.533h-153.6c-5.12,0-8.533-3.413-8.533-8.533v-102.4
		c0-5.12,3.413-8.533,8.533-8.533H468.12c5.12,0,8.533,3.413,8.533,8.533v102.4C476.653,353.56,473.24,356.973,468.12,356.973z
		 M323.053,339.907h136.533v-85.333h-409.6v85.333H186.52c0.853-18.773,17.067-34.133,35.84-34.133h64
		C305.987,305.773,322.2,321.133,323.053,339.907z"/>
	<path d="M468.12,288.707h-59.733c-5.12,0-8.533-3.413-8.533-8.533c0-5.12,3.413-8.533,8.533-8.533h59.733
		c5.12,0,8.533,3.413,8.533,8.533S473.24,288.707,468.12,288.707z"/>
	<path d="M468.12,322.84h-34.133c-5.12,0-8.533-3.413-8.533-8.533c0-5.12,3.413-8.533,8.533-8.533h34.133
		c5.12,0,8.533,3.413,8.533,8.533C476.653,319.427,473.24,322.84,468.12,322.84z"/>
	<path d="M101.187,288.707H41.453c-5.12,0-8.533-3.413-8.533-8.533c0-5.12,3.413-8.533,8.533-8.533h59.733
		c5.12,0,8.533,3.413,8.533,8.533S106.307,288.707,101.187,288.707z"/>
	<path d="M75.587,322.84H41.453c-5.12,0-8.533-3.413-8.533-8.533c0-5.12,3.413-8.533,8.533-8.533h34.133
		c5.12,0,8.533,3.413,8.533,8.533C84.12,319.427,80.707,322.84,75.587,322.84z"/>
	<path d="M468.12,186.307h-59.733c-5.12,0-8.533-3.413-8.533-8.533c0-5.12,3.413-8.533,8.533-8.533h59.733
		c5.12,0,8.533,3.413,8.533,8.533C476.653,182.893,473.24,186.307,468.12,186.307z"/>
	<path d="M468.12,220.44h-34.133c-5.12,0-8.533-3.413-8.533-8.533c0-5.12,3.413-8.533,8.533-8.533h34.133
		c5.12,0,8.533,3.413,8.533,8.533C476.653,217.027,473.24,220.44,468.12,220.44z"/>
	<path d="M101.187,186.307H41.453c-5.12,0-8.533-3.413-8.533-8.533c0-5.12,3.413-8.533,8.533-8.533h59.733
		c5.12,0,8.533,3.413,8.533,8.533C109.72,182.893,106.307,186.307,101.187,186.307z"/>
	<path d="M75.587,220.44H41.453c-5.12,0-8.533-3.413-8.533-8.533c0-5.12,3.413-8.533,8.533-8.533h34.133
		c5.12,0,8.533,3.413,8.533,8.533C84.12,217.027,80.707,220.44,75.587,220.44z"/>
	<path d="M468.12,391.107h-59.733c-5.12,0-8.533-3.413-8.533-8.533c0-5.12,3.413-8.533,8.533-8.533h59.733
		c5.12,0,8.533,3.413,8.533,8.533C476.653,387.693,473.24,391.107,468.12,391.107z"/>
	<path d="M468.12,425.24h-34.133c-5.12,0-8.533-3.413-8.533-8.533s3.413-8.533,8.533-8.533h34.133c5.12,0,8.533,3.413,8.533,8.533
		S473.24,425.24,468.12,425.24z"/>
	<path d="M101.187,391.107H41.453c-5.12,0-8.533-3.413-8.533-8.533c0-5.12,3.413-8.533,8.533-8.533h59.733
		c5.12,0,8.533,3.413,8.533,8.533C109.72,387.693,106.307,391.107,101.187,391.107z"/>
	<path d="M75.587,425.24H41.453c-5.12,0-8.533-3.413-8.533-8.533s3.413-8.533,8.533-8.533h34.133c5.12,0,8.533,3.413,8.533,8.533
		S80.707,425.24,75.587,425.24z"/>
</g>
</svg>