<?xml version="1.0" encoding="iso-8859-1"?>
<!-- Uploaded to: SVG Repo, www.svgrepo.com, Generator: SVG Repo Mixer Tools -->
<svg height="800px" width="800px" version="1.1" id="Layer_1" xmlns="http://www.w3.org/2000/svg" xmlns:xlink="http://www.w3.org/1999/xlink" 
	 viewBox="0 0 512 512" xml:space="preserve">
<g transform="translate(1 1)">
	<g>
		<path style="fill:#FFE100;" d="M109.933,195.267L109.933,195.267c0-13.653,11.947-25.6,25.6-25.6h162.133
			c13.653,0,25.6,11.947,25.6,25.6l0,0c0,13.653-11.947,25.6-25.6,25.6H135.533C121.88,220.867,109.933,208.92,109.933,195.267"/>
		<path style="fill:#FFE100;" d="M127,246.467L127,246.467c0-13.653,11.093-25.6,25.6-25.6h119.467c13.653,0,25.6,11.947,25.6,25.6
			l0,0c0,13.653-11.947,25.6-25.6,25.6H152.6C138.093,272.067,127,260.12,127,246.467"/>
		<path style="fill:#FFE100;" d="M127,144.067L127,144.067c0-13.653,11.093-25.6,25.6-25.6h119.467c13.653,0,25.6,11.947,25.6,25.6
			l0,0c0,13.653-11.947,25.6-25.6,25.6H152.6C138.093,169.667,127,157.72,127,144.067"/>
		<path style="fill:#FFE100;" d="M272.067,92.867L272.067,92.867c0,13.653-11.947,25.6-25.6,25.6H178.2
			c-14.507,0-25.6-11.947-25.6-25.6l0,0c0-13.653,11.093-25.6,25.6-25.6h68.267C260.12,67.267,272.067,79.213,272.067,92.867"/>
	</g>
	<g>
		<path style="fill:#FFA800;" d="M246.467,67.267h-25.6c13.653,0,25.6,11.947,25.6,25.6s-11.947,25.6-25.6,25.6h25.6
			c13.653,0,25.6-11.947,25.6-25.6S260.12,67.267,246.467,67.267"/>
		<path style="fill:#FFA800;" d="M272.067,118.467h-25.6c13.653,0,25.6,11.947,25.6,25.6c0,13.653-11.947,25.6-25.6,25.6h25.6
			c13.653,0,25.6-11.947,25.6-25.6C297.667,130.413,285.72,118.467,272.067,118.467"/>
		<path style="fill:#FFA800;" d="M297.667,169.667h-25.6c13.653,0,25.6,11.947,25.6,25.6s-11.947,25.6-25.6,25.6h25.6
			c13.653,0,25.6-11.947,25.6-25.6S311.32,169.667,297.667,169.667"/>
		<path style="fill:#FFA800;" d="M272.067,220.867h-25.6c13.653,0,25.6,11.947,25.6,25.6c0,13.653-11.947,25.6-25.6,25.6h25.6
			c13.653,0,25.6-11.947,25.6-25.6C297.667,232.813,285.72,220.867,272.067,220.867"/>
	</g>
	<g>
		<path style="fill:#FFFFFF;" d="M186.733,67.267h25.6c-13.653,0-25.6,11.947-25.6,25.6s11.947,25.6,25.6,25.6h-25.6
			c-14.507,0-25.6-11.947-25.6-25.6S172.227,67.267,186.733,67.267"/>
		<path style="fill:#FFFFFF;" d="M161.133,118.467h25.6c-14.507,0-25.6,11.947-25.6,25.6c0,13.653,11.093,25.6,25.6,25.6h-25.6
			c-14.507,0-25.6-11.947-25.6-25.6C135.533,130.413,146.627,118.467,161.133,118.467"/>
		<path style="fill:#FFFFFF;" d="M135.533,169.667h25.6c-14.507,0-25.6,11.947-25.6,25.6s11.093,25.6,25.6,25.6h-25.6
			c-13.653,0-25.6-11.947-25.6-25.6S121.88,169.667,135.533,169.667"/>
		<path style="fill:#FFFFFF;" d="M161.133,220.867h25.6c-14.507,0-25.6,11.947-25.6,25.6c0,13.653,11.093,25.6,25.6,25.6h-25.6
			c-14.507,0-25.6-11.947-25.6-25.6C135.533,232.813,146.627,220.867,161.133,220.867"/>
	</g>
	<polygon style="fill:#FFE100;" points="186.733,67.267 237.933,67.267 237.933,7.533 186.733,7.533 	"/>
	<polygon style="fill:#FFA800;" points="220.867,67.267 237.933,67.267 237.933,7.533 220.867,7.533 	"/>
	<path style="fill:#FFE100;" d="M272.067,468.333H306.2c13.653,0,25.6-11.093,25.6-25.6l0,0c0-14.507-11.947-25.6-25.6-25.6h-34.133
		c-12.8,0-18.773-8.533-22.187-17.92c-5.12-15.36-3.413-33.28,6.827-45.227c17.92-23.04,15.36-47.787,15.36-47.787v-8.533
		c0-14.507-11.947-25.6-25.6-25.6H178.2c-14.507,0-25.6,11.093-25.6,25.6l0,0c0,14.507,11.093,25.6,25.6,25.6h42.667V306.2v17.067
		c0,8.533-5.973,23.04-17.067,34.133c0,0-25.6,23.04-25.6,76.8h-34.133c-18.773,0-34.133,15.36-34.133,34.133l0,0
		c0,18.773,15.36,34.133,34.133,34.133h221.867c18.773,0,34.133-15.36,34.133-34.133l0,0c0-18.773-15.36-34.133-34.133-34.133H331.8
		"/>
	<path style="fill:#FFA800;" d="M365.933,434.2h-25.6c18.773,0,34.133,15.36,34.133,34.133c0,18.773-15.36,34.133-34.133,34.133
		h25.6c18.773,0,34.133-15.36,34.133-34.133C400.067,449.56,384.707,434.2,365.933,434.2"/>
	<path style="fill:#FFFFFF;" d="M144.067,434.2h25.6c-18.773,0-34.133,15.36-34.133,34.133c0,18.773,15.36,34.133,34.133,34.133
		h-25.6c-18.773,0-34.133-15.36-34.133-34.133C109.933,449.56,125.293,434.2,144.067,434.2"/>
	<path d="M272.067,280.6H152.6c-18.773,0-34.133-15.36-34.133-34.133s15.36-34.133,34.133-34.133h119.467
		c18.773,0,34.133,15.36,34.133,34.133S290.84,280.6,272.067,280.6z M152.6,229.4c-9.387,0-17.067,7.68-17.067,17.067
		s7.68,17.067,17.067,17.067h119.467c9.387,0,17.067-7.68,17.067-17.067s-7.68-17.067-17.067-17.067H152.6z"/>
	<path d="M272.067,178.2H152.6c-18.773,0-34.133-15.36-34.133-34.133s15.36-34.133,34.133-34.133h119.467
		c18.773,0,34.133,15.36,34.133,34.133S290.84,178.2,272.067,178.2z M152.6,127c-9.387,0-17.067,7.68-17.067,17.067
		c0,9.387,7.68,17.067,17.067,17.067h119.467c9.387,0,17.067-7.68,17.067-17.067c0-9.387-7.68-17.067-17.067-17.067H152.6z"/>
	<path d="M246.467,127H178.2c-18.773,0-34.133-15.36-34.133-34.133s15.36-34.133,34.133-34.133h68.267
		c18.773,0,34.133,15.36,34.133,34.133S265.24,127,246.467,127z M178.2,75.8c-9.387,0-17.067,7.68-17.067,17.067
		s7.68,17.067,17.067,17.067h68.267c9.387,0,17.067-7.68,17.067-17.067S255.853,75.8,246.467,75.8H178.2z"/>
	<path d="M297.667,229.4H135.533c-18.773,0-34.133-15.36-34.133-34.133s15.36-34.133,34.133-34.133h162.133
		c18.773,0,34.133,15.36,34.133,34.133S316.44,229.4,297.667,229.4z M135.533,178.2c-9.387,0-17.067,7.68-17.067,17.067
		s7.68,17.067,17.067,17.067h162.133c9.387,0,17.067-7.68,17.067-17.067s-7.68-17.067-17.067-17.067H135.533z"/>
	<path d="M237.933,75.8h-51.2c-5.12,0-8.533-3.413-8.533-8.533V7.533c0-5.12,3.413-8.533,8.533-8.533h51.2
		c5.12,0,8.533,3.413,8.533,8.533v59.733C246.467,72.387,243.053,75.8,237.933,75.8z M195.267,58.733H229.4V16.067h-34.133V58.733z"
		/>
	<path d="M365.933,511H144.067c-23.893,0-42.667-18.773-42.667-42.667c0-23.893,18.773-42.667,42.667-42.667h25.6
		c2.56-51.2,27.307-73.387,28.16-74.24c5.973-5.973,10.24-13.653,11.947-19.627H178.2c-18.773,0-34.133-15.36-34.133-34.133
		s15.36-34.133,34.133-34.133h68.267c18.773,0,34.133,15.36,34.133,34.133v8.533c0,4.267,1.707,29.867-17.92,52.907
		c-7.68,9.387-9.387,23.893-5.12,37.547c3.413,11.093,9.387,11.947,14.507,11.947H306.2c12.8,0,23.893,6.827,29.867,17.067h29.867
		c23.893,0,42.667,18.773,42.667,42.667C408.6,492.227,389.827,511,365.933,511z M144.067,442.733c-14.507,0-25.6,11.093-25.6,25.6
		c0,14.507,11.093,25.6,25.6,25.6h221.867c14.507,0,25.6-11.093,25.6-25.6c0-14.507-11.093-25.6-25.6-25.6h-25.6
		c0,18.773-15.36,34.133-34.133,34.133h-34.133c-5.12,0-8.533-3.413-8.533-8.533c0-5.12,3.413-8.533,8.533-8.533H306.2
		c9.387,0,17.067-7.68,17.067-17.067s-7.68-17.067-17.067-17.067h-34.133c-14.507,0-25.6-8.533-30.72-23.893
		c-6.827-18.773-3.413-39.253,7.68-53.76c16.213-19.627,13.653-40.96,13.653-40.96v-9.387c0-9.387-7.68-17.067-17.067-17.067H178.2
		c-9.387,0-17.067,7.68-17.067,17.067s7.68,17.067,17.067,17.067h34.133V306.2c0-5.12,3.413-8.533,8.533-8.533
		c5.12,0,8.533,3.413,8.533,8.533v17.067c0,11.947-8.533,29.013-19.627,40.107c-0.853,0.853-23.04,22.187-23.04,70.827
		c0,5.12-3.413,8.533-8.533,8.533H144.067z"/>
	<path d="M237.933,442.733h-25.6c-5.12,0-8.533-3.413-8.533-8.533c0-5.12,3.413-8.533,8.533-8.533h25.6
		c5.12,0,8.533,3.413,8.533,8.533C246.467,439.32,243.053,442.733,237.933,442.733z"/>
</g>
</svg>