<svg width="24" height="25" viewBox="0 0 24 25" fill="none" xmlns="http://www.w3.org/2000/svg">
<g clip-path="url(#clip0_87_287)">
<path d="M23.6776 5.67479V18.7124C23.5858 18.9533 23.5858 19.2114 23.5227 19.4638C23.0409 21.477 21.4865 23.1634 19.5019 23.7656C19.1233 23.8804 18.739 23.9435 18.3547 24.0295H5.31713C2.51804 23.6853 0.286792 21.4656 0 18.6435V5.79524C0.263849 2.92732 2.56966 0.627251 5.43184 0.357666H18.1482C20.9244 0.524005 23.4194 2.88717 23.6718 5.67479H23.6776ZM5.49494 2.35948C3.648 2.56023 2.18536 4.04581 1.99607 5.88702V18.46C2.17388 20.37 3.70535 21.89 5.61539 22.0449H18.0564C19.9894 21.8843 21.5266 20.3471 21.6872 18.4141V5.97879C21.5266 4.06302 20.0124 2.53155 18.1023 2.35374L5.49494 2.36521V2.35948Z" fill="#000"/>
<path d="M11.2709 6.29422C16.0431 5.89271 19.3642 10.946 16.9781 15.1446C14.7181 19.1138 8.91345 19.1024 6.68221 15.1159C4.6001 11.3991 7.0321 6.65558 11.2766 6.29422H11.2709ZM11.4143 8.27882C8.5693 8.5484 7.04357 11.7146 8.43738 14.1867C9.83119 16.6589 13.743 16.7736 15.2229 14.2154C16.8576 11.3762 14.6665 7.97482 11.4143 8.27882Z" fill="#000"/>
<path d="M18.1652 4.30386C20.058 4.19488 20.253 7.01691 18.5151 7.24634C16.3871 7.5274 16.1749 4.41857 18.1652 4.30386Z" fill="#000"/>
</g>
<defs>
<clipPath id="clip0_87_287">
<rect width="23.6776" height="23.6776" fill="white" transform="translate(0 0.357666)"/>
</clipPath>
</defs>
</svg>
